<svg width="250.25287" height="245.42298" xmlns="http://www.w3.org/2000/svg" data-name="Layer 1">
 <g>
  <title>Layer 1</title>
  <path id="svg_1" fill="#3f3d56" d="m220.02633,188.88001c-0.42969,0.63 -0.86963,1.25 -1.31006,1.87l-1.00976,-2.03l-0.16016,-0.32995l-1,-2l-25.46,-51.31l-0.00976,-0.01l-43.16016,-86.94l0,-0.01l-0.99024,-1.99l0,-0.01l-21.35986,-43.03l-1.00976,-2.04q1.13964,0.03 2.27978,0.09l1.02,2.05l21.30029,42.93l0.00977,0.01l0.99023,1.99l0,0.01l42.05957,84.73l0,0.01l0.99024,1.99l0,0.01l25.46,51.27l0.33984,0.69l1.02004,2.04995z"/>
  <path id="svg_2" fill="#3f3d56" d="m216.39643,48.13001l-190.54,0c0.51025,-0.67 1.02979,-1.34 1.56982,-2l187.40038,0c0.54003,0.65997 1.05957,1.33001 1.5698,2z"/>
  <path id="svg_3" fill="#3f3d56" d="m240.53659,132.87c-0.06006,0.67 -0.12989,1.34 -0.22022,2l-48.81006,0l0,-2l49.03028,0z"/>
  <path id="svg_4" fill="#3f3d56" d="m33.10643,39.53998l0,162.92c-0.68994,-0.73 -1.3501,-1.47 -2,-2.21l0,-158.5c0.64988,-0.73997 1.31,-1.47996 2,-2.21z"/>
  <rect id="svg_5" fill="#3f3d56" height="2" width="186.06213" y="186.38884" x="32.10675"/>
  <path id="svg_6" fill="#6c63ff" d="m148.59099,94.27167c0,17.04569 -25.068,65.11393 -34.48307,82.56633a3.99424,3.99424 0 0 1 -7.03387,0c-9.41506,-17.4524 -34.48306,-65.52064 -34.48306,-82.56633a38,38 0 0 1 76,0z"/>
  <circle id="svg_7" fill="#fff" r="17" cy="94.27166" cx="110.59099"/>
  <circle id="svg_8" fill="#6c63ff" r="7" cy="188.27166" cx="110.59099"/>
  <path id="svg_10" fill="#f2f2f2" d="m241.26657,690.16998l-0.07032,0.35l-0.02,0.08c0,-0.03 -0.00976,-0.05 -0.00976,-0.08c-0.02,-0.13 -0.03027,-0.26 -0.04981,-0.39c0.04975,0.01004 0.09959,0.03 0.14989,0.04z"/>
  <path id="svg_12" fill="#fff" d="m232.62643,693.02002c-0.66992,-1.05005 -1.33984,-2.09 -2,-3.14c-0.56982,-0.89 -1.12988,-1.78 -1.68994,-2.67c-0.14014,-0.22 -0.27979,-0.43 -0.3999,-0.65q2.75976,0.855 5.54,1.64c0.1499,0.25 0.30957,0.51 0.48,0.76c0.4497,0.71 0.8999,1.43 1.35986,2.14c0.06982,0.12 0.12988,0.23 0.18017,0.34c0.78958,1.92998 -2.22019,3.52 -3.47019,1.58z"/>
  <path id="svg_14" fill="#f2f2f2" d="m226.14643,690.98999c-0.04981,-0.07 -0.1001,-0.15 -0.1499,-0.22c0.02978,-0.01 0.0498,-0.01 0.08008,-0.02l0.06982,0.24z"/>
  <path id="svg_17" fill="#f2f2f2" d="m558.98629,690.16998l0.07032,0.35l0.02,0.08c0,-0.03 0.00976,-0.05 0.00976,-0.08c0.02,-0.13 0.03027,-0.26 0.04981,-0.39c-0.04975,0.01004 -0.09959,0.03 -0.14989,0.04z"/>
  <path id="svg_19" fill="#fff" d="m567.62643,693.02002c0.66992,-1.05005 1.33984,-2.09 2,-3.14c0.56982,-0.89 1.12988,-1.78 1.68994,-2.67c0.14014,-0.22 0.27979,-0.43 0.3999,-0.65q-2.75976,0.855 -5.54,1.64c-0.1499,0.25 -0.30957,0.51 -0.48,0.76c-0.4497,0.71 -0.8999,1.43 -1.35986,2.14c-0.06982,0.12 -0.12988,0.23 -0.18017,0.34c-0.78958,1.92998 2.22019,3.52 3.47019,1.58z"/>
  <path id="svg_21" fill="#f2f2f2" d="m574.10643,690.98999c0.04981,-0.07 0.1001,-0.15 0.1499,-0.22c-0.02978,-0.01 -0.0498,-0.01 -0.08008,-0.02l-0.06982,0.24z"/>
  <path id="svg_50" fill="#ccc" d="m217.93649,188.39002l0.23,0l0,-0.33a3.288,3.288 0 0 1 -0.23,0.33zm-1.54,-140.26c-0.51025,-0.67 -1.02979,-1.34 -1.56982,-2a119.78247,119.78247 0 0 0 -87.99024,-44.99q-1.13964,-0.06006 -2.27978,-0.09c-1.14014,-0.03 -2.28028,-0.05 -3.43018,-0.05a119.637,119.637 0 0 0 -88.02,38.54c-0.68994,0.73 -1.3501,1.47 -2,2.21q-1.905,2.145 -3.68018,4.38c-0.54,0.66 -1.05957,1.33 -1.56982,2a119.73089,119.73089 0 0 0 5.25,152.12c0.6499,0.74 1.31006,1.48 2,2.21a119.84017,119.84017 0 0 0 185.60986,-11.71c0.44043,-0.62 0.88037,-1.24 1.31006,-1.87a119.03872,119.03872 0 0 0 20.29,-54.01c0.09033,-0.66 0.16016,-1.33 0.22022,-2q0.58446,-5.85 0.58984,-11.87a119.31855,119.31855 0 0 0 -24.73002,-72.87001l0.00006,0.00001zm21.91016,86.74a116.94966,116.94966 0 0 1 -19.3003,51.96q-0.405,0.615 -0.83984,1.23a3.288,3.288 0 0 1 -0.23,0.33c-0.06983,0.11 -0.1499,0.22 -0.23,0.32995a117.86166,117.86166 0 0 1 -184.6001,10.78c-0.68994,-0.76 -1.35986,-1.52 -2,-2.3a117.76208,117.76208 0 0 1 -2.73,-149.07c0.53027,-0.67 1.06006,-1.34 1.60986,-2c0.36035,-0.45 0.73,-0.89 1.12012,-1.33c0.64014,-0.78 1.31006,-1.54 2,-2.3a117.66522,117.66522 0 0 1 88.02,-39.5q2.23535,0 4.43994,0.09c0.77,0.02 1.53027,0.06 2.29,0.1a117.849,117.849 0 0 1 84.41016,42.94c0.5498,0.66 1.08007,1.33 1.60986,2a117.39189,117.39189 0 0 1 25.25,72.87q0,6.015 -0.58984,11.87c-0.07024,0.67001 -0.14008,1.34005 -0.2299,2.00003l0.00004,0.00002zm-20.37012,53.52l0.23,0l0,-0.33a3.288,3.288 0 0 1 -0.23004,0.33l0.00004,0z"/>
 </g>

</svg>