<svg width="419" height="364.82907" xmlns="http://www.w3.org/2000/svg" data-name="Layer 1">

 <g>
  <title>Layer 1</title>
  <path id="svg_2" fill="#fff" d="m177.73,362.82902c3.21973,0.75 6.44971,1.41 9.69971,2l-17.56985,0c-2.30029,-0.62 -4.59033,-1.28 -6.85986,-2q-7.48534,-2.34 -14.74023,-5.37c-19.39991,-8.14 -37.27,-20.36 -50.79,-36.62a103.37091,103.37091 0 0 1 -16.02,-26.17a118.85639,118.85639 0 0 1 -8.19971,-33.49c-2.4502,-23.6 0.0498,-47.85 4.71973,-71.03a296.45051,296.45051 0 0 1 23.16015,-69.47q1.905,-3.97494 3.93994,-7.9a1.54158,1.54158 0 0 1 1.02979,-0.88a1.77741,1.77741 0 0 1 1.33008,0.27a2.1062,2.1062 0 0 1 0.83008,2.78a293.03874,293.03874 0 0 0 -24.58008,66.96c-5.31983,22.67 -8.33985,46.39 -7.31006,69.7c0.98,21.78 6.67041,43.2 19.58008,61.00994c11.79,16.26 28.06982,29.08 46.08008,37.81a169.131,169.131 0 0 0 35.70015,12.40006z"/>
  <path id="svg_3" fill="#fff" d="m216.29,364.82902l-5.18018,0c-0.58007,-0.66 -1.14013,-1.33 -1.68994,-2a110.41123,110.41123 0 0 1 -23.24023,-49.66a107.73445,107.73445 0 0 1 9.29,-67.05a110.2407,110.2407 0 0 1 10.04,-16.62c1.35986,0.29 2.70019,0.62 4.02,1.02a106.05621,106.05621 0 0 0 -19.77,45.34a105.09492,105.09492 0 0 0 24.74035,86.97c0.57959,0.66998 1.17969,1.34002 1.79,2z"/>
  <path id="svg_7" fill="#6c63ff" d="m158.50977,213.50822l-95.981,0l-1.01754,-29.5107a8.85956,8.85956 0 0 1 9.93091,-9.09863l55.85449,6.83936l0.00684,0a31.29061,31.29061 0 0 1 31.2063,31.27l0,0.49997z"/>
  <path id="svg_8" fill="#ccc" d="m115.73082,108.82902l-66.94211,0a6.77712,6.77712 0 0 0 -6.77894,6.77894l0,66.94211a6.77713,6.77713 0 0 0 6.77894,6.77895l66.94211,0a6.77714,6.77714 0 0 0 6.779,-6.77895l0,-66.94211a6.77713,6.77713 0 0 0 -6.779,-6.77894z"/>
  <path id="svg_9" fill="#3f3d56" d="m100.65445,158.88578l-31.60628,6.15492a7.2107,7.2107 0 0 1 -8.44659,-5.69307l-2.42958,-12.47617a7.21069,7.21069 0 0 1 5.69307,-8.44658l31.60628,-6.15491a7.21069,7.21069 0 0 1 8.44659,5.69307l2.42957,12.47616a7.21068,7.21068 0 0 1 -5.69306,8.44658z"/>
  <path id="svg_10" fill="#fff" d="m94.331,144.1464l-24.12058,4.69717a1.69474,1.69474 0 0 1 -0.64789,-3.327l24.12059,-4.69717a1.69474,1.69474 0 0 1 0.64788,3.327z"/>
  <path id="svg_11" fill="#fff" d="m89.64259,151.10241l-12.47616,2.42957a1.69474,1.69474 0 0 1 -0.64789,-3.327l12.47617,-2.42957a1.69474,1.69474 0 1 1 0.64788,3.327z"/>
  <path id="svg_12" fill="#b3b3b3" d="m122.50977,115.60796l0,8.89737l-80.5,0l0,-8.89737a6.77712,6.77712 0 0 1 6.77894,-6.77894l66.94211,0a6.77713,6.77713 0 0 1 6.77895,6.77894z"/>
  <path id="svg_13" fill="#ffb8b8" d="m283.26052,127.29157a10.74267,10.74267 0 0 0 -15.19331,-6.3648l-92.09655,-33.04273l-4.05633,23.00726l91.8034,25.2454a10.80091,10.80091 0 0 0 19.54279,-8.84513z"/>
  <path id="svg_14" opacity="0.2" d="m283.26052,127.29157a10.74267,10.74267 0 0 0 -15.19331,-6.3648l-92.09655,-33.04273l-4.05633,23.00726l91.8034,25.2454a10.80091,10.80091 0 0 0 19.54279,-8.84513z"/>
  <path id="svg_15" fill="#6c63ff" d="m192.31732,92.0764l-8.69674,22.72023a4.81688,4.81688 0 0 1 -6.86086,2.47581l-21.13624,-11.89627a13.37737,13.37737 0 0 1 9.63746,-24.95856l23.6022,5.23464a4.81686,4.81686 0 0 1 3.45418,6.42415z"/>
  <path id="svg_16" fill="#6c63ff" d="m290.50977,148.32902l-33,15l4.33259,16.311a253.73547,253.73547 0 0 1 6.53976,96.64985l0,0l24.12766,5.03915l20,-51l-7,-58l-15.00001,-24z"/>
  <path id="svg_17" fill="#3f3d56" d="m355.25977,223.82902c-21.68213,0 -39.35157,15.762 -40.209,35.5l80.418,0c-0.85744,-19.73804 -18.52688,-35.5 -40.209,-35.5z"/>
  <path id="svg_18" fill="#3f3d56" d="m338.38135,227.23057c-1.12842,-89.09839 -51.87158,-80.90155 -51.87158,-80.90155s0.94921,27.73333 1.40527,28.59582c32.33545,61.17957 -21.03027,132.90381 -88.96,119.70886q-1.92114,-0.37317 -3.69141,-0.75714a34.5813,34.5813 0 0 1 -27.16328,-38.76284c6.69158,-53.73562 -26.59062,-52.7847 -26.59062,-52.7847l-48.66647,0l-25.27335,-22.7459a7.3469,7.3469 0 0 0 -11.80868,2.92095l-3.25146,8.825s-48,5 -44,52l14.83984,0a29.96684,29.96684 0 0 0 0.16016,4l110.75092,-0.90044c6.49187,-0.05278 12.22225,5.20768 12.249,11.69971a11.75308,11.75308 0 0 1 -12.14443,11.79594l-17.85546,-0.59521c-5.5,24.5 8,41 22.875,51.375a83.1484,83.1484 0 0 0 47.61766,14.625l48.50734,0c63,0 74,-53 74,-53c32.99997,-14.00005 28.87155,-55.0985 28.87155,-55.0985z"/>
  <circle id="svg_19" fill="#3f3d56" r="56.25" cy="308.07903" cx="352.25977"/>
  <circle id="svg_20" fill="#fff" r="13.78676" cy="308.07903" cx="352.25977"/>
  <circle id="svg_21" fill="#3f3d56" r="64.75" cy="299.57903" cx="68.25977"/>
  <circle id="svg_22" fill="#fff" r="15.8701" cy="299.57903" cx="68.25977"/>
  <path id="svg_23" fill="#3f3d56" d="m257.60352,167.76115l-11.87352,-32.24952a13.63843,13.63843 0 0 1 8.08691,-17.51074l34.04,-12.53125a23.99761,23.99761 0 0 1 30.812,14.22705a23.84491,23.84491 0 0 1 1.481,8.29248a24.1887,24.1887 0 0 1 -8.98779,18.73a23.81344,23.81344 0 0 1 -6.72022,3.78907l-46.83838,17.25291z"/>
  <path id="svg_24" fill="#6c63ff" d="m319.6499,127.98899a23.54938,23.54938 0 0 1 -8.80029,18.34a29.98827,29.98827 0 0 1 -19.69971,-41.3a23.50519,23.50519 0 0 1 28.5,22.96z"/>
  <ellipse id="svg_25" fill="#6c63ff" ry="17" rx="14" cy="232.82903" cx="17.00977"/>
  <polygon id="svg_26" fill="#ffb8b8" points="202.07101440429688,293.0050048828125 214.33099365234375,293.0050048828125 220.16400146484375,261.2080078125 202.06900024414062,261.2090148925781 202.07101440429688,293.0050048828125 "/>
  <path id="svg_27" fill="#2f2e41" d="m198.94363,289.00246l24.1438,-0.001l0.001,0a15.38605,15.38605 0 0 1 15.38648,15.38623l0,0.5l-39.53052,0.00146l-0.00076,-15.88669z"/>
  <path id="svg_28" fill="#2f2e41" d="m216.30136,279.95452q-0.21423,0 -0.43018,-0.02051l-16.96655,-1.23535a4.49992,4.49992 0 0 1 -3.80932,-6.0293l22.70654,-51.01464a3.49812,3.49812 0 0 0 -0.19629,-2.79883a3.45084,3.45084 0 0 0 -2.21118,-1.75977c-10.67725,-2.791 -38.072,-10.22265 -61.78638,-18.918c-10.15991,-3.72558 -16.55884,-9.10937 -19.0188,-16.00195c-3.24316,-9.08691 1.55469,-17.374 1.7605,-17.72168l0.16089,-0.27246l22.3147,2.02832l24.19116,2.05762l53.01343,28.42773a20.086,20.086 0 0 1 8.8186,25.78418l-24.44092,54.80764a4.49689,4.49689 0 0 1 -4.1062,2.667z"/>
  <circle id="svg_29" fill="#ffb8b8" r="24.56103" cy="40.7202" cx="162.70532"/>
  <polygon id="svg_30" fill="#ffb8b8" points="195.07101440429688,296.0050048828125 207.33099365234375,296.0050048828125 213.16400146484375,264.2080078125 195.06900024414062,264.2090148925781 195.07101440429688,296.0050048828125 "/>
  <path id="svg_31" fill="#2f2e41" d="m191.94363,292.00246l24.1438,-0.001l0.001,0a15.38605,15.38605 0 0 1 15.38648,15.38623l0,0.5l-39.53052,0.00146l-0.00076,-15.88669z"/>
  <path id="svg_32" fill="#2f2e41" d="m209.30136,282.95452q-0.21423,0 -0.43018,-0.02051l-16.96655,-1.23535a4.49992,4.49992 0 0 1 -3.80932,-6.0293l22.70654,-51.01464a3.49812,3.49812 0 0 0 -0.19629,-2.79883a3.45084,3.45084 0 0 0 -2.21118,-1.75977c-10.67725,-2.791 -38.072,-10.22265 -61.78638,-18.918c-10.15991,-3.72558 -16.55884,-9.10937 -19.0188,-16.00195c-3.24316,-9.08691 1.55469,-17.374 1.7605,-17.72168l0.16089,-0.27246l22.3147,2.02832l24.19116,2.05762l53.01343,28.42773a20.086,20.086 0 0 1 8.8186,25.78418l-24.44092,54.80764a4.49689,4.49689 0 0 1 -4.1062,2.667z"/>
  <path id="svg_33" fill="#6c63ff" d="m170.28012,79.20838l-26,-9s-16.322,12.54 -8.481,43.64856a77.01209,77.01209 0 0 1 -3.40009,48.32025a49.7787,49.7787 0 0 1 -2.61889,5.53119s29,35 56,9l-10.5,-50.5s16.49998,-33.5 -5.00002,-47z"/>
  <path id="svg_34" fill="#2f2e41" d="m165.75474,66.11652c-3.49562,-5.23231 -6.25435,-12.48756 -2.40565,-17.46591c3.79907,-4.91416 11.29215,-4.19018 17.11054,-6.36466c8.104,-3.02867 12.80409,-12.5493 11.33824,-21.07564s-8.31031,-15.59442 -16.46405,-18.48645s-17.34839,-1.95148 -25.33312,1.37887c-9.82931,4.0997 -18.26115,12.03028 -21.79686,22.07625s-1.6456,22.10808 5.68929,29.82963c7.86381,8.27834 20.20556,10.48454 31.62276,10.35067"/>
  <path id="svg_35" fill="#2f2e41" d="m142.90785,21.48394c-4.40484,3.58587 -11.12527,1.99318 -15.8536,-1.15387s-8.56507,-7.62825 -13.681,-10.09566c-9.01922,-4.34995 -19.92379,-1.45825 -28.70171,3.36009s-16.55916,11.475 -25.83124,15.25617s-21.10393,3.96808 -28.12484,-3.17161a25.732,25.732 0 0 0 37.7101,30.37145c10.1594,-6.18839 15.77105,-19.1637 27.16592,-22.57933c6.3055,-1.89008 13.07632,-0.36777 19.44917,1.28106s13.01783,3.43041 19.44912,2.02674s12.447,-7.18312 11.6288,-13.71475l-3.21072,-1.58029z"/>
  <path id="svg_36" fill="#ffb8b8" d="m282.03838,126.29118a10.74265,10.74265 0 0 0 -15.86252,-4.44158l-95.46976,-21.42716l-1.18664,23.33194l94.21678,13.72558a10.80091,10.80091 0 0 0 18.30214,-11.18878z"/>
  <path id="svg_37" fill="#6c63ff" d="m187.44513,102.56587l-5.827,23.61966a4.81688,4.81688 0 0 1 -6.503,3.3034l-22.44252,-9.19753a13.37737,13.37737 0 0 1 6.48437,-25.957l24.06772,2.28255a4.81687,4.81687 0 0 1 4.22042,5.94888l0.00001,0.00004z"/>
  <circle id="svg_38" fill="#6c63ff" r="7" cy="137.82903" cx="271.00977"/>
 </g>
</svg>