<svg width="1050.29518" height="674.01653" xmlns="http://www.w3.org/2000/svg" data-name="Layer 1">
 <title>Ride_till_I_can_no_more</title>

 <g>
  <title>Layer 1</title>
  <path id="svg_2" fill="#c8e3f4" d="m942.58477,422.48636c-23.00083,22.39038 -25.81021,56.8096 -25.81021,56.8096s34.48232,-1.88275 57.48315,-24.27313s25.81021,-56.80959 25.81021,-56.80959s-34.48233,1.88275 -57.48315,24.27312z"/>
  <path id="svg_3" fill="#c8e3f4" d="m911.27659,674.01654l-1.38623,-1.44141c0.21778,-0.209 21.85547,-21.4043 30.09668,-61.00781c7.61133,-36.57715 5.02637,-96.80176 -50.51074,-175.99317c-42.59424,-60.73633 -59.831,-113.7998 -51.231,-157.71728c7.55469,-38.582 33.24952,-55.53076 33.5083,-55.69727l1.0835,1.68067c-0.25146,0.16259 -25.27246,16.71191 -32.6416,54.46337c-8.46192,43.35157 8.66943,95.87891 50.91846,156.12208c24.70752,35.23144 41.15576,69.73339 48.8872,102.54687c6.19532,26.2959 6.84033,51.57324 1.917,75.12988c-8.39398,40.16211 -30.41986,61.70117 -30.64157,61.91407z"/>
  <ellipse id="svg_4" fill="#c8e3f4" ry="30.88036" rx="180" cy="241.11957" cx="901.29518"/>
  <path id="svg_5" fill="#c8e3f4" d="m867.79518,262.99993c-124.76612,0 -222.5,-17.13086 -222.5,-39s97.73388,-39 222.5,-39s222.5,17.13086 222.5,39s-97.73389,39 -222.5,39zm0,-76c-119.52344,0 -220.5,16.94385 -220.5,37s100.97656,37 220.5,37s220.5,-16.94384 220.5,-37s-100.97659,-37 -220.5,-37z"/>
  <circle id="svg_7" fill="#c8e3f4" r="77.41424" cy="174.83504" cx="150.10228"/>
  <path id="svg_8" fill="#c8e3f4" d="m168.35449,246.95557a105.47779,105.47779 0 1 1 105.47754,-105.478a105.59766,105.59766 0 0 1 -105.47754,105.478zm0,-208.95557a103.47779,103.47779 0 1 0 103.47754,103.47754a103.595,103.595 0 0 0 -103.47754,-103.47754z"/>
  <circle id="svg_9" fill="#c8e3f4" r="64.19717" cy="270.43319" cx="383.51652"/>
  <circle id="svg_10" fill="#c8e3f4" r="64.19717" cy="432.23514" cx="486.78855"/>
  <path id="svg_11" fill="#c8e3f4" d="m920.85421,673.85719l-217.64107,0s-4.41164,-64.7041 21.69058,-65.43937s23.16113,28.67568 55.88082,-11.76438s72.42447,-38.23424 77.57139,-14.33784s-9.9262,43.01352 17.64657,37.13133s67.27756,9.55856 44.85171,54.41026z"/>
  <path id="svg_12" fill="#c8e3f4" d="m808.35982,673.87191l-0.73455,-0.02944c1.71306,-42.60064 10.63508,-69.972 17.818,-85.43178c7.799,-16.78654 15.31438,-23.58208 15.38941,-23.64886l0.48863,0.54948c-0.074,0.06606 -7.50173,6.7941 -15.23827,23.467c-7.14325,15.39445 -16.01645,42.65344 -17.72322,85.0936z"/>
  <path id="svg_13" fill="#c8e3f4" d="m887.12959,673.95987l-0.70584,-0.20536a114.05766,114.05766 0 0 1 28.71593,-47.77524l0.494,0.54428a113.28289,113.28289 0 0 0 -28.50409,47.43632z"/>
  <path id="svg_14" fill="#c8e3f4" d="m737.49259,673.90782l-0.72846,-0.10125a80.08,80.08 0 0 0 -7.20284,-46.80693a64.44942,64.44942 0 0 0 -11.3677,-16.58782l0.50873,-0.53063a65.25638,65.25638 0 0 1 11.5181,16.79282a80.814,80.814 0 0 1 7.27217,47.23381z"/>
  <circle id="svg_20" fill="#c8e3f4" r="15" cy="554.85719" cx="309"/>
  <path id="svg_55" fill="#3f3d56" d="m485,631.85719"/>
  <g>
   <g>
    <title>Layer 1</title>
    <path d="m198.11782,664.92279c3.21973,0.75 6.44971,1.41 9.69971,2l-17.56985,0c-2.30029,-0.62 -4.59033,-1.28 -6.85986,-2q-7.48534,-2.34 -14.74023,-5.37c-19.39991,-8.14 -37.27,-20.36 -50.79,-36.62a103.37091,103.37091 0 0 1 -16.02,-26.17a118.85639,118.85639 0 0 1 -8.19971,-33.49c-2.4502,-23.6 0.0498,-47.85 4.71973,-71.03a296.45051,296.45051 0 0 1 23.16015,-69.47q1.905,-3.97494 3.93994,-7.9a1.54158,1.54158 0 0 1 1.02979,-0.88a1.77741,1.77741 0 0 1 1.33008,0.27a2.1062,2.1062 0 0 1 0.83008,2.78a293.03874,293.03874 0 0 0 -24.58008,66.96c-5.31983,22.67 -8.33985,46.39 -7.31006,69.7c0.98,21.78 6.67041,43.2 19.58008,61.00994c11.79,16.26 28.06982,29.08 46.08008,37.81a169.131,169.131 0 0 0 35.70015,12.40006z" fill="#fff" id="svg_89"/>
    <path d="m236.67782,666.92279l-5.18018,0c-0.58007,-0.66 -1.14013,-1.33 -1.68994,-2a110.41123,110.41123 0 0 1 -23.24023,-49.66a107.73445,107.73445 0 0 1 9.29,-67.05a110.2407,110.2407 0 0 1 10.04,-16.62c1.35986,0.29 2.70019,0.62 4.02,1.02a106.05621,106.05621 0 0 0 -19.77,45.34a105.09492,105.09492 0 0 0 24.74035,86.97c0.57959,0.66998 1.17969,1.34002 1.79,2z" fill="#fff" id="svg_88"/>
    <path d="m178.89759,515.60199l-95.981,0l-1.01754,-29.5107a8.85956,8.85956 0 0 1 9.93091,-9.09863l55.85449,6.83936l0.00684,0a31.29061,31.29061 0 0 1 31.2063,31.27l0,0.49997z" fill="#6c63ff" id="svg_87"/>
    <path d="m136.11864,410.92279l-66.94211,0a6.77712,6.77712 0 0 0 -6.77894,6.77894l0,66.94211a6.77713,6.77713 0 0 0 6.77894,6.77895l66.94211,0a6.77714,6.77714 0 0 0 6.779,-6.77895l0,-66.94211a6.77713,6.77713 0 0 0 -6.779,-6.77894z" fill="#ccc" id="svg_86"/>
    <path d="m121.04227,460.97955l-31.60628,6.15492a7.2107,7.2107 0 0 1 -8.44659,-5.69307l-2.42958,-12.47617a7.21069,7.21069 0 0 1 5.69307,-8.44658l31.60628,-6.15491a7.21069,7.21069 0 0 1 8.44659,5.69307l2.42957,12.47616a7.21068,7.21068 0 0 1 -5.69306,8.44658z" fill="#3f3d56" id="svg_85"/>
    <path d="m114.71882,446.24017l-24.12058,4.69717a1.69474,1.69474 0 0 1 -0.64789,-3.327l24.12059,-4.69717a1.69474,1.69474 0 0 1 0.64788,3.327z" fill="#fff" id="svg_84"/>
    <path d="m110.03041,453.19618l-12.47616,2.42957a1.69474,1.69474 0 0 1 -0.64789,-3.327l12.47617,-2.42957a1.69474,1.69474 0 1 1 0.64788,3.327z" fill="#fff" id="svg_83"/>
    <path d="m142.89759,417.70173l0,8.89737l-80.5,0l0,-8.89737a6.77712,6.77712 0 0 1 6.77894,-6.77894l66.94211,0a6.77713,6.77713 0 0 1 6.77895,6.77894z" fill="#b3b3b3" id="svg_82"/>
    <path d="m303.64834,429.38534a10.74267,10.74267 0 0 0 -15.19331,-6.3648l-92.09655,-33.04273l-4.05633,23.00726l91.8034,25.2454a10.80091,10.80091 0 0 0 19.54279,-8.84513z" fill="#ffb8b8" id="svg_81"/>
    <path d="m303.64834,429.38534a10.74267,10.74267 0 0 0 -15.19331,-6.3648l-92.09655,-33.04273l-4.05633,23.00726l91.8034,25.2454a10.80091,10.80091 0 0 0 19.54279,-8.84513z" opacity="0.2" id="svg_80"/>
    <path d="m212.70514,394.17017l-8.69674,22.72023a4.81688,4.81688 0 0 1 -6.86086,2.47581l-21.13624,-11.89627a13.37737,13.37737 0 0 1 9.63746,-24.95856l23.6022,5.23464a4.81686,4.81686 0 0 1 3.45418,6.42415z" fill="#6c63ff" id="svg_79"/>
    <path d="m310.89759,450.42279l-33,15l4.33259,16.311a253.73547,253.73547 0 0 1 6.53976,96.64985l0,0l24.12766,5.03915l20,-51l-7,-58l-15.00001,-24z" fill="#6c63ff" id="svg_78"/>
    <path d="m375.64759,525.92279c-21.68213,0 -39.35157,15.762 -40.209,35.5l80.418,0c-0.85744,-19.73804 -18.52688,-35.5 -40.209,-35.5z" fill="#3f3d56" id="svg_77"/>
    <path d="m358.76917,529.32434c-1.12842,-89.09839 -51.87158,-80.90155 -51.87158,-80.90155s0.94921,27.73333 1.40527,28.59582c32.33545,61.17957 -21.03027,132.90381 -88.96,119.70886q-1.92114,-0.37317 -3.69141,-0.75714a34.5813,34.5813 0 0 1 -27.16328,-38.76284c6.69158,-53.73562 -26.59062,-52.7847 -26.59062,-52.7847l-48.66647,0l-25.27335,-22.7459a7.3469,7.3469 0 0 0 -11.80868,2.92095l-3.25146,8.825s-48,5 -44,52l14.83984,0a29.96684,29.96684 0 0 0 0.16016,4l110.75092,-0.90044c6.49187,-0.05278 12.22225,5.20768 12.249,11.69971a11.75308,11.75308 0 0 1 -12.14443,11.79594l-17.85546,-0.59521c-5.5,24.5 8,41 22.875,51.375a83.1484,83.1484 0 0 0 47.61766,14.625l48.50734,0c63,0 74,-53 74,-53c32.99997,-14.00005 28.87155,-55.0985 28.87155,-55.0985z" fill="#3f3d56" id="svg_76"/>
    <circle cx="372.64759" cy="610.1728" r="56.25" fill="#3f3d56" id="svg_75"/>
    <circle cx="372.64759" cy="610.1728" r="13.78676" fill="#fff" id="svg_74"/>
    <circle cx="88.64759" cy="601.6728" r="64.75" fill="#3f3d56" id="svg_73"/>
    <circle cx="88.64759" cy="601.6728" r="15.8701" fill="#fff" id="svg_72"/>
    <path d="m277.99134,469.85492l-11.87352,-32.24952a13.63843,13.63843 0 0 1 8.08691,-17.51074l34.04,-12.53125a23.99761,23.99761 0 0 1 30.812,14.22705a23.84491,23.84491 0 0 1 1.481,8.29248a24.1887,24.1887 0 0 1 -8.98779,18.73a23.81344,23.81344 0 0 1 -6.72022,3.78907l-46.83838,17.25291z" fill="#3f3d56" id="svg_71"/>
    <path d="m340.03772,430.08276a23.54938,23.54938 0 0 1 -8.80029,18.34a29.98827,29.98827 0 0 1 -19.69971,-41.3a23.50519,23.50519 0 0 1 28.5,22.96z" fill="#6c63ff" id="svg_70"/>
    <ellipse cx="37.39759" cy="534.9228" rx="14" ry="17" fill="#6c63ff" id="svg_69"/>
    <polygon points="222.4588623046875,595.0987548828125 234.71881103515625,595.0987548828125 240.55181884765625,563.3017578125 222.45684814453125,563.3027954101562 222.4588623046875,595.0987548828125 " fill="#ffb8b8" id="svg_68"/>
    <path d="m219.33145,591.09623l24.1438,-0.001l0.001,0a15.38605,15.38605 0 0 1 15.38648,15.38623l0,0.5l-39.53052,0.00146l-0.00076,-15.88669z" fill="#2f2e41" id="svg_67"/>
    <path d="m236.68918,582.04829q-0.21423,0 -0.43018,-0.02051l-16.96655,-1.23535a4.49992,4.49992 0 0 1 -3.80932,-6.0293l22.70654,-51.01464a3.49812,3.49812 0 0 0 -0.19629,-2.79883a3.45084,3.45084 0 0 0 -2.21118,-1.75977c-10.67725,-2.791 -38.072,-10.22265 -61.78638,-18.918c-10.15991,-3.72558 -16.55884,-9.10937 -19.0188,-16.00195c-3.24316,-9.08691 1.55469,-17.374 1.7605,-17.72168l0.16089,-0.27246l22.3147,2.02832l24.19116,2.05762l53.01343,28.42773a20.086,20.086 0 0 1 8.8186,25.78418l-24.44092,54.80764a4.49689,4.49689 0 0 1 -4.1062,2.667z" fill="#2f2e41" id="svg_66"/>
    <circle cx="183.09314" cy="342.81397" r="24.56103" fill="#ffb8b8" id="svg_65"/>
    <polygon points="215.4588623046875,598.0987548828125 227.71881103515625,598.0987548828125 233.55181884765625,566.3017578125 215.45684814453125,566.3027954101562 215.4588623046875,598.0987548828125 " fill="#ffb8b8" id="svg_64"/>
    <path d="m212.33145,594.09623l24.1438,-0.001l0.001,0a15.38605,15.38605 0 0 1 15.38648,15.38623l0,0.5l-39.53052,0.00146l-0.00076,-15.88669z" fill="#2f2e41" id="svg_63"/>
    <path d="m229.68918,585.04829q-0.21423,0 -0.43018,-0.02051l-16.96655,-1.23535a4.49992,4.49992 0 0 1 -3.80932,-6.0293l22.70654,-51.01464a3.49812,3.49812 0 0 0 -0.19629,-2.79883a3.45084,3.45084 0 0 0 -2.21118,-1.75977c-10.67725,-2.791 -38.072,-10.22265 -61.78638,-18.918c-10.15991,-3.72558 -16.55884,-9.10937 -19.0188,-16.00195c-3.24316,-9.08691 1.55469,-17.374 1.7605,-17.72168l0.16089,-0.27246l22.3147,2.02832l24.19116,2.05762l53.01343,28.42773a20.086,20.086 0 0 1 8.8186,25.78418l-24.44092,54.80764a4.49689,4.49689 0 0 1 -4.1062,2.667z" fill="#2f2e41" id="svg_62"/>
    <path d="m190.66794,381.30215l-26,-9s-16.322,12.54 -8.481,43.64856a77.01209,77.01209 0 0 1 -3.40009,48.32025a49.7787,49.7787 0 0 1 -2.61889,5.53119s29,35 56,9l-10.5,-50.5s16.49998,-33.5 -5.00002,-47z" fill="#6c63ff" id="svg_61"/>
    <path d="m186.14256,368.21029c-3.49562,-5.23231 -6.25435,-12.48756 -2.40565,-17.46591c3.79907,-4.91416 11.29215,-4.19018 17.11054,-6.36466c8.104,-3.02867 12.80409,-12.5493 11.33824,-21.07564s-8.31031,-15.59442 -16.46405,-18.48645s-17.34839,-1.95148 -25.33312,1.37887c-9.82931,4.0997 -18.26115,12.03028 -21.79686,22.07625s-1.6456,22.10808 5.68929,29.82963c7.86381,8.27834 20.20556,10.48454 31.62276,10.35067" fill="#2f2e41" id="svg_60"/>
    <path d="m163.29567,323.57771c-4.40484,3.58587 -11.12527,1.99318 -15.8536,-1.15387s-8.56507,-7.62825 -13.681,-10.09566c-9.01922,-4.34995 -19.92379,-1.45825 -28.70171,3.36009s-16.55916,11.475 -25.83124,15.25617s-21.10393,3.96808 -28.12484,-3.17161a25.732,25.732 0 0 0 37.7101,30.37145c10.1594,-6.18839 15.77105,-19.1637 27.16592,-22.57933c6.3055,-1.89008 13.07632,-0.36777 19.44917,1.28106s13.01783,3.43041 19.44912,2.02674s12.447,-7.18312 11.6288,-13.71475l-3.21072,-1.58029z" fill="#2f2e41" id="svg_59"/>
    <path d="m302.4262,428.38495a10.74265,10.74265 0 0 0 -15.86252,-4.44158l-95.46976,-21.42716l-1.18664,23.33194l94.21678,13.72558a10.80091,10.80091 0 0 0 18.30214,-11.18878z" fill="#ffb8b8" id="svg_58"/>
    <path d="m207.83295,404.65964l-5.827,23.61966a4.81688,4.81688 0 0 1 -6.503,3.3034l-22.44252,-9.19753a13.37737,13.37737 0 0 1 6.48437,-25.957l24.06772,2.28255a4.81687,4.81687 0 0 1 4.22042,5.94888l0.00001,0.00004z" fill="#6c63ff" id="svg_57"/>
    <circle cx="291.39759" cy="439.9228" r="7" fill="#6c63ff" id="svg_56"/>
   </g>
  </g>
  <g stroke="null">
   <g stroke="null">
    <title stroke="null">Layer 1</title>
    <path stroke="null" id="svg_165" fill="#3f3d56" d="m909.27924,458.12755c-0.42497,0.55352 -0.86008,1.09824 -1.29567,1.64297l-0.99867,-1.78355l-0.1584,-0.28989l-0.98901,-1.75719l-25.18032,-45.08074l-0.00965,-0.00879l-42.68604,-76.3851l0,-0.00879l-0.97936,-1.74841l0,-0.00879l-21.12522,-37.80597l-0.99867,-1.79234q1.12712,0.02636 2.25474,0.07907l1.0088,1.80112l21.0663,37.71811l0.00966,0.00879l0.97935,1.74841l0,0.00879l41.59754,74.44341l0,0.00879l0.97936,1.74841l0,0.00879l25.18032,45.0456l0.33611,0.60623l1.00883,1.80108z"/>
    <path stroke="null" id="svg_164" fill="#3f3d56" d="m905.68921,334.46522l-188.4469,0c0.50464,-0.58866 1.01848,-1.17732 1.55258,-1.75719l185.34177,0c0.5341,0.57985 1.04793,1.16854 1.55256,1.75719z"/>
    <path stroke="null" id="svg_163" fill="#3f3d56" d="m929.56419,408.9174c-0.0594,0.58866 -0.12846,1.17732 -0.2178,1.75719l-48.27388,0l0,-1.75719l48.49168,0z"/>
    <path stroke="null" id="svg_162" fill="#3f3d56" d="m724.41266,326.91806l0,143.1408c-0.68236,-0.64137 -1.33527,-1.29154 -1.97803,-1.9417l0,-139.2574c0.64274,-0.65013 1.29561,-1.30029 1.97803,-1.9417z"/>
    <rect stroke="null" id="svg_161" fill="#3f3d56" height="1.75719" width="184.01822" y="458.93882" x="723.42397"/>
    <path stroke="null" id="svg_160" fill="#6c63ff" d="m838.62862,371.00508c0,14.97627 -24.79263,57.20881 -34.10427,72.54241a3.95036,3.50932 0 0 1 -6.9566,0c-9.31163,-15.3336 -34.10426,-57.56615 -34.10426,-72.54241a37.58257,33.38663 0 0 1 75.16513,0z"/>
    <circle stroke="null" id="svg_159" fill="#fff" r="13.85118" cy="375.00507" cx="801.04605"/>
    <circle stroke="null" id="svg_158" fill="#6c63ff" r="5.70343" cy="452.59306" cx="800.04605"/>
    <path stroke="null" id="svg_157" fill="#f2f2f2" d="m657.11994,627.68012l-0.06955,0.30751l-0.01978,0.07029c0,-0.02636 -0.00965,-0.04393 -0.00965,-0.07029c-0.01978,-0.11422 -0.02994,-0.22843 -0.04926,-0.34265c0.0492,0.00882 0.0985,0.02636 0.14824,0.03514z"/>
    <path stroke="null" id="svg_156" fill="#fff" d="m648.57471,630.18415c-0.66256,-0.92257 -1.32512,-1.83626 -1.97803,-2.75879c-0.56356,-0.78195 -1.11747,-1.5639 -1.67138,-2.34585c-0.1386,-0.19329 -0.27672,-0.3778 -0.39551,-0.57109q2.72944,0.7512 5.47914,1.4409c0.14825,0.21965 0.30617,0.44808 0.47473,0.66773c0.44476,0.6238 0.89001,1.25639 1.34492,1.88019c0.06905,0.10543 0.12845,0.20208 0.17819,0.29872c0.78091,1.69567 -2.1958,3.09266 -3.43207,1.38818z"/>
    <path stroke="null" id="svg_155" fill="#f2f2f2" d="m642.1659,628.40058c-0.04926,-0.0615 -0.099,-0.13179 -0.14825,-0.19329c0.02945,-0.00879 0.04925,-0.00879 0.0792,-0.01757l0.06905,0.21086z"/>
    <path stroke="null" id="svg_154" fill="#f2f2f2" d="m971.34949,627.68012l0.06955,0.30751l0.01978,0.07029c0,-0.02636 0.00965,-0.04393 0.00965,-0.07029c0.01978,-0.11422 0.02994,-0.22843 0.04926,-0.34265c-0.0492,0.00882 -0.0985,0.02636 -0.14824,0.03514z"/>
    <path stroke="null" id="svg_153" fill="#fff" d="m979.89471,630.18415c0.66256,-0.92257 1.32512,-1.83626 1.97803,-2.75879c0.56356,-0.78195 1.11747,-1.5639 1.67138,-2.34585c0.1386,-0.19329 0.27672,-0.3778 0.39551,-0.57109q-2.72944,0.7512 -5.47914,1.4409c-0.14825,0.21965 -0.30617,0.44808 -0.47473,0.66773c-0.44476,0.6238 -0.89001,1.25639 -1.34492,1.88019c-0.06905,0.10543 -0.12845,0.20208 -0.17819,0.29872c-0.78091,1.69567 2.1958,3.09266 3.43207,1.38818z"/>
    <path stroke="null" id="svg_152" fill="#f2f2f2" d="m986.30353,628.40058c0.04926,-0.0615 0.099,-0.13179 0.14825,-0.19329c-0.02945,-0.00879 -0.04925,-0.00879 -0.0792,-0.01757l-0.06905,0.21086z"/>
    <path stroke="null" id="svg_125" fill="#ccc" d="m907.21235,457.69705l0.22747,0l0,-0.28994a3.25188,2.88882 0 0 1 -0.22747,0.28994zm-1.52308,-123.23182c-0.50464,-0.58866 -1.01848,-1.17732 -1.55258,-1.75719a118.46665,105.24035 0 0 0 -87.02366,-39.52802q-1.12712,-0.05277 -2.25474,-0.07907c-1.12762,-0.02636 -2.25523,-0.04393 -3.3925,-0.04393a118.32278,105.11254 0 0 0 -87.05309,33.86107c-0.68236,0.64137 -1.33527,1.29154 -1.97803,1.9417q-1.88407,1.88459 -3.63975,3.84825c-0.53407,0.57987 -1.04793,1.16853 -1.55258,1.75719a118.41564,105.19503 0 0 0 5.19233,133.65196c0.64276,0.65016 1.29567,1.30032 1.97803,1.9417a118.52372,105.29105 0 0 0 183.57092,-10.28835c0.43559,-0.54473 0.8707,-1.08946 1.29567,-1.64297a117.73107,104.5869 0 0 0 20.06711,-47.45295c0.08934,-0.57987 0.1584,-1.16853 0.2178,-1.75719q0.57804,-5.13978 0.58336,-10.42893a118.00783,104.83275 0 0 0 -24.45836,-64.02327l0.00006,0.00001zm21.66948,76.20938a115.66496,102.75146 0 0 1 -19.08828,45.65183q-0.40055,0.54034 -0.83061,1.08067a3.25188,2.88882 0 0 1 -0.22747,0.28994c-0.06906,0.09665 -0.14825,0.19329 -0.22747,0.28989a116.56694,103.55274 0 0 1 -182.57225,9.47126c-0.68236,-0.66773 -1.34492,-1.33547 -1.97803,-2.02077a116.46845,103.46525 0 0 1 -2.70001,-130.97225c0.52444,-0.58866 1.04842,-1.17732 1.59218,-1.75719c0.35639,-0.39537 0.72198,-0.78195 1.10782,-1.16853c0.63311,-0.6853 1.29567,-1.35304 1.97803,-2.02077a116.37266,103.38015 0 0 1 87.05309,-34.70453q2.21079,0 4.39117,0.07907c0.76154,0.01757 1.51346,0.05272 2.26484,0.08786a116.55442,103.54161 0 0 1 83.48291,37.7269c0.54376,0.57987 1.06821,1.16853 1.59218,1.75719a116.10233,103.14 0 0 1 24.97263,64.02326q0,5.28475 -0.58336,10.42893c-0.06947,0.58867 -0.13854,1.17736 -0.22737,1.75722l0.00004,0.00002zm-20.14635,47.02244l0.22747,0l0,-0.28994a3.25188,2.88882 0 0 1 -0.22751,0.28994l0.00004,0z"/>
   </g>
  </g>
 </g>
</svg>