<svg width="295.55805" height="517.51874" xmlns="http://www.w3.org/2000/svg" data-name="Layer 1">
 <title>heavy_box</title>

 <g>
  <title>Layer 1</title>
  <path id="svg_3" fill="#ffb8b8" d="m251.48504,253.65242c5.62128,4.36531 7.67682,5.77455 8.8739,5.59569c57.99957,16.88979 7.15438,36.68334 -21.02622,3.08454l12.15232,-8.68023z"/>
  <polygon id="svg_4" fill="#ffb8b8" points="60.0989990234375,432.0929870605469 60.0989990234375,471.74700927734375 88.64900207519531,470.1610107421875 80.71900177001953,428.9209899902344 60.0989990234375,432.0929870605469 "/>
  <polygon id="svg_5" fill="#ffb8b8" points="218.71299743652344,432.0929870605469 218.71299743652344,471.74700927734375 190.16200256347656,470.1610107421875 198.09300231933594,428.9209899902344 218.71299743652344,432.0929870605469 "/>
  <path id="svg_6" fill="#2f2e41" d="m131.47512,227.48108l42.82582,-1.58614c98.7937,103.57113 61.43194,79.94854 58.68724,222.05982l-52.34267,-15.86139l11.103,-98.34078c0.00564,-0.00376 2.9288,-1.95254 0.499,-1.99746c-15.19648,5.22229 -26.2843,-59.43676 -59.18629,-51.93136c-37.44073,-1.791 -43.536,53.75037 -58.68724,53.92882l11.10306,98.34078l-52.3427,15.86139c-5.8605,-156.16587 -34.583,-120.8878 58.68724,-222.05982l39.65354,1.58614z"/>
  <path id="svg_7" fill="#2f2e41" d="m68.02945,459.05775s-6.34456,-12.68913 -14.27527,-6.34456s-26.96441,25.37826 -26.96441,25.37826s-45.99811,20.61985 -17.44756,33.309s52.34268,-17.44756 52.34268,-17.44756c27.194,-5.67065 42.87962,-9.3011 28.45819,-38.964c-8.18761,3.54302 -19.77432,7.64487 -22.11363,4.06886z"/>
  <path id="svg_8" fill="#2f2e41" d="m210.7822,459.05775s6.34456,-12.68913 14.27527,-6.34456s26.96441,25.37826 26.96441,25.37826s45.99811,20.61985 17.44756,33.309s-52.34268,-17.44756 -52.34268,-17.44756c-27.194,-5.67065 -42.87962,-9.3011 -28.45819,-38.964c8.18761,3.54302 19.77432,7.64487 22.11363,4.06886z"/>
  <path id="svg_9" fill="#ffb8b8" d="m174.30094,48.24708c-2.35907,39.4855 -56.24811,36.00919 -57.10087,-0.00032c2.35884,-39.48519 56.24788,-36.00888 57.10087,0.00032z"/>
  <path id="svg_10" fill="#ffb8b8" d="m133.06126,68.86692c13.87587,41.93775 -18.88432,19.10541 26.96441,52.34267l17.44755,-34.89511s-12.68913,-4.75843 -11.103,-22.206l-33.30896,4.75844z"/>
  <path id="svg_11" fill="#575a89" d="m218.71291,92.65904l-47.28234,-10.79227c1.32987,28.5097 -29.09516,22.7717 -34.404,8.43062l-45.205,26.15378c18.97388,70.667 14.16522,73.58277 -11.103,118.96062c-9.64336,8.806 4.77846,13.85306 17.33355,9.03441c9.576,-5.91024 14.43914,-11.16237 24.7,-9.82589c48.48518,10.0956 88.84834,12.47853 95.23609,8.53366c2.28576,-3.27133 -0.06617,-149.92705 0.7247,-150.49493z"/>
  <path id="svg_12" fill="#575a89" d="m206.02377,95.83137c1.58614,0 9.7566,-3.84164 9.7566,-3.84164c23.771,-0.40071 39.72292,159.49664 40.99993,164.04194l-15.86141,11.103l-25.37827,-65.03181l-9.51685,-106.27149z"/>
  <path id="svg_13" fill="#ffb8b8" d="m94.99386,281.40989c0.811,5.98616 2.1911,73.21058 26.27252,41.80855c3.15944,-22.91 -7.58221,-29.74918 -10.4111,-44.98083l-15.86142,3.17228z"/>
  <path id="svg_14" fill="#575a89" d="m101.33843,116.45117l-4.85992,-2.69431c-13.02929,-0.42812 -8.923,34.06114 -14.43543,59.31894c-4.50341,29.42466 -3.22115,61.86983 2.06236,105.24733c0.46205,15.91777 28.9725,5.88989 33.0944,4.67291c0,0 -9.51685,-65.03181 -4.75842,-76.1348s-11.10299,-90.41007 -11.10299,-90.41007z"/>
  <path id="svg_15" fill="#2f2e41" d="m173.05304,20.56973a34.02906,34.02906 0 0 0 -19.357,-14.798l-5.91821,4.73455l2.3009,-5.52232a31.326,31.326 0 0 0 -5.84937,-0.33807l-5.32488,6.84631l2.20389,-6.6118c-22.84908,2.4534 -36.36771,28.68323 -24.50556,47.04084c1.82984,-5.62323 4.05069,-10.89971 5.88053,-16.523a16.64409,16.64409 0 0 0 4.33558,0.02112l2.22628,-5.19453l0.62186,4.97483c6.90017,-0.60122 17.13483,-1.921 23.67647,-3.13031l-0.63606,-3.81638l3.80566,3.17141c2.00423,-0.46143 3.19416,-0.87977 3.09583,-1.19955c4.86513,7.84319 9.68573,12.8528 14.55074,20.69594c1.84683,-11.06305 5.10706,-20.259 -1.10666,-30.35104z"/>
  <polygon id="svg_20" fill="#fff" points="406.916 359.57 402.415 351.775 397.915 343.979 393.414 351.775 388.913 359.57 393.749 359.57 393.749 382.144 402.08 382.144 402.08 359.57 406.916 359.57"/>
 </g>
</svg>