<svg width="237.46722" height="405.14881" xmlns="http://www.w3.org/2000/svg" data-name="Layer 1">

 <g>
  <title>Layer 1</title>
  <path id="svg_8" fill="#e4e4e4" d="m154.12002,236.9654l0.00018,0a45.82532,45.82532 0 0 1 45.8253,45.82531l0,87.18l-178.83065,0l0,-0.00013a133.00517,133.00517 0 0 1 133.00515,-133.00518l0.00002,0z"/>
  <polygon id="svg_10" fill="#9e616a" points="62.32200622558594,378.42401123046875 48.25199890136719,382.4939880371094 25.856002807617188,330.1619873046875 46.62199401855469,324.15399169921875 62.32200622558594,378.42401123046875 "/>
  <path id="svg_11" fill="#2f2e41" d="m69.85599,391.02421l-45.36725,13.12459l-0.166,-0.57381a18.38326,18.38326 0 0 1 12.549,-22.76684l0.00112,-0.00033l27.7088,-8.016l5.27433,18.23239z"/>
  <polygon id="svg_12" fill="#9e616a" points="172.4840087890625,379.82501220703125 186.6929931640625,383.37799072265625 207.15899658203125,330.260986328125 186.18798828125,325.01800537109375 172.4840087890625,379.82501220703125 "/>
  <path id="svg_13" fill="#2f2e41" d="m170.01941,374.27951l27.98349,6.997l0.00113,0.00029a18.38327,18.38327 0 0 1 13.37343,22.29254l-0.14493,0.5795l-45.817,-11.4562l4.60388,-18.41313z"/>
  <path id="svg_14" fill="#2f2e41" d="m95.96996,188.7704l-14.51548,15.48318s-76.44816,33.86944 -76.44816,51.288s18.38625,92.899 26.12784,98.70521c4.663,3.51646 2.55514,7.30369 4.86854,12.66627l27.0655,-9.76318s-1.93539,-5.80622 0,-8.7093s0,-4.83851 0,-4.83851s-2.90308,0.96771 -1.93539,-1.93538s0.96768,-3.87079 0,-4.8385s-3.8708,-9.677 -3.8708,-9.677s0.96769,-34.83713 -12.58008,-47.41724c0,0 62.90037,-18.38625 70.642,-30.96635s9.677,-58.06191 9.677,-58.06191l-29.03097,-1.93529z"/>
  <path id="svg_15" fill="#2f2e41" d="m137.58097,181.9965l14.51548,25.16016s76.44818,33.86944 76.44818,51.288s-18.38623,92.899 -26.12787,98.70521c-4.663,3.51646 -3.32655,8.80537 -5.64,14.168l-26.29407,-11.26486s1.93538,-5.80622 0,-8.70931s0,-4.8385 0,-4.8385s2.90309,0.96771 1.93538,-1.93538s-0.96771,-3.8708 0,-4.83851s3.8708,-9.677 3.8708,-9.677s-0.96772,-34.83713 12.5801,-47.41723c0,0 -68.7066,-24.19247 -76.44819,-36.77253c-9.91467,-16.11132 -2.66543,-82.27134 -4.83851,-59.99731l29.9987,-3.87074z"/>
  <circle id="svg_16" fill="#9e616a" r="25.16016" cy="41.68022" cx="142.41946"/>
  <path id="svg_17" fill="#6c63ff" d="m159.83804,79.4204s0.23234,0.4485 -43.95131,-3.021c0,0 -24.75528,9.795 -23.78757,16.56883s-1.93538,99.67293 -1.93538,99.67293s40.64335,11.61239 52.25574,0s17.41852,-113.22076 17.41852,-113.22076z"/>
  <path id="svg_18" fill="#3f3d56" d="m151.26084,78.40066l11.74605,0.73413s34.57137,12.86574 33.60366,22.54273s-19.354,55.1588 -19.354,55.1588s-9.677,34.83715 -7.74159,44.51412s4.8385,12.58008 2.90308,15.48317s0,8.70928 0,10.64468s-11.61234,9.677 -11.61234,9.677s-18.38623,-16.45087 -25.16016,-19.354s-11.61239,-25.16016 -6.77389,-44.51412s19.354,-81.28667 19.354,-81.28667a17.63968,17.63968 0 0 1 3.03519,-13.59984z"/>
  <path id="svg_19" fill="#3f3d56" d="m120.53861,75.64995a32.36284,32.36284 0 0 0 -14.79376,0.54833c-5.02761,1.37116 -28.16123,9.99609 -28.16123,13.86689s9.677,52.25572 9.677,52.25572l1.93538,28.06324l-17.41857,12.58006s3.8708,12.58008 -0.96768,17.41856s-10.64468,17.41857 -4.83849,19.354s41.61109,-11.61235 42.57875,-26.12788s-2.90308,-25.16016 3.8708,-35.80484s7.74159,-52.25571 7.74159,-52.25571l0.37621,-29.89837z"/>
  <path id="svg_20" fill="#2f2e41" d="m165.91754,19.97224a29.05849,29.05849 0 0 0 -16.52958,-12.6365l-5.05372,4.043l1.96482,-4.71569a26.75132,26.75132 0 0 0 -4.995,-0.28868l-4.54708,5.8463l1.882,-5.64605a28.78069,28.78069 0 0 0 -19.85431,11.80993c-5.78735,8.34484 -6.76389,19.94976 -1.07184,28.35983c1.56257,-4.80186 3.459,-9.30763 5.02159,-14.10954a14.21258,14.21258 0 0 0 3.70227,0.018l1.9011,-4.43579l0.531,4.24818c5.89229,-0.51341 14.632,-1.64041 20.2181,-2.67307l-0.54316,-3.25893l3.24981,2.70819c1.71147,-0.394 2.72757,-0.75127 2.6436,-1.02434c4.15452,6.69757 9.23867,10.97543 13.39305,17.67294c1.57706,-9.44712 3.39342,-17.29985 -1.91265,-25.91778z"/>
  <ellipse id="svg_21" fill="#a0616a" ry="3.38694" rx="2.03216" cy="42.64792" cx="165.64422"/>
  <path id="svg_22" fill="#e4e4e4" d="m155.25646,215.24166l-43.73046,0a4.15,4.15 0 0 1 -4.15,-4.15l0,0l-1.92708,-57.21986a4.15,4.15 0 0 1 4.15,-4.15l47.58463,0a4.15,4.15 0 0 1 4.15,4.15l0,0l-1.92709,57.21986a4.15,4.15 0 0 1 -4.15,4.15z"/>
  <circle id="svg_23" fill="#6c63ff" r="3.85411" cy="167.06529" cx="133.39121"/>
  <path id="svg_24" fill="#9e616a" d="m139.77095,191.91218a10.44855,10.44855 0 0 1 15.99747,-0.87781l22.357,-8.382l8.40738,12.344l-31.73869,11.39355a10.50513,10.50513 0 0 1 -15.02317,-14.47771l0.00001,-0.00003z"/>
  <path id="svg_25" fill="#9e616a" d="m126.38252,189.38631a10.44849,10.44849 0 0 0 -15.55883,-3.82262l-20.42008,-12.3739l-10.54617,10.57523l29.08254,17.06938a10.50513,10.50513 0 0 0 17.44254,-11.448l0,-0.00009z"/>
  <path id="svg_26" fill="#3f3d56" d="m181.1274,95.87132s14.51548,-2.90308 18.38623,9.677s23.22474,59.02959 17.41857,65.80348s-27.09558,25.16016 -33.86947,29.031s-9.677,3.8708 -9.677,3.8708l-8.70926,3.8708l-2.90308,-22.25707l9.93224,-5.88352l15.22798,-12.50281l-8.70931,-26.12785l2.9031,-45.48183z"/>
  <path id="svg_27" fill="#3f3d56" d="m86.29294,89.0974s-14.51548,-2.903 -18.38625,9.677s-23.22476,59.0296 -17.41859,65.80348s27.09556,25.16016 33.86942,29.031s9.677,3.8708 9.677,3.8708l8.70931,3.87079l2.90308,-22.25707l-9.93224,-5.88351l-15.22792,-12.50276l14.03165,-34.3533l-8.22546,-37.25643z"/>
 </g>
</svg>